<svg width="54" height="40" viewBox="0 0 54 40" fill="none" xmlns="http://www.w3.org/2000/svg">
<g clip-path="url(#clip0_9_4389)">
<path d="M36.1548 17.3167H5.50781V5.54871H36.1548V17.3167ZM6.1708 16.6484H35.4918V6.21633H6.1708V16.6484Z" fill="#222226"/>
<path d="M44.6795 28.8206H2.75195V2.77393H44.6795V28.8206ZM3.41494 28.1522H44.019V3.44155H3.41494V28.1522Z" fill="#222226"/>
<path d="M53.3333 39.9998H0V-0.00158691H53.3333V39.9998ZM0.660528 39.3315H52.6703V0.666784H0.660528V39.3315Z" fill="#222226"/>
<path fill-rule="evenodd" clip-rule="evenodd" d="M12.2481 11.5769C12.2481 10.3939 11.5277 9.83421 10.4844 9.83421H9.82554V13.3196H10.4844C11.5279 13.3196 12.2481 12.7594 12.2481 11.5769ZM9.08398 9.15668H10.4701C11.9328 9.15668 13.0037 9.99363 13.0037 11.5769C13.0037 13.1602 11.9328 13.9969 10.4701 13.9969H9.08398V9.15668Z" fill="#222226"/>
<path fill-rule="evenodd" clip-rule="evenodd" d="M17.9695 12.2752C17.9695 13.4436 17.1801 14.0942 16.095 14.0942C15.0099 14.0942 14.2217 13.4439 14.2217 12.2752V9.15613H14.9627V12.2534C14.951 12.4072 14.972 12.5618 15.0245 12.7067C15.0769 12.8516 15.1596 12.9836 15.2669 13.0936C15.3742 13.2036 15.5036 13.2891 15.6464 13.3445C15.7893 13.3998 15.9422 13.4237 16.095 13.4144C16.2478 13.4238 16.401 13.4001 16.544 13.3449C16.687 13.2896 16.8166 13.2041 16.924 13.0941C17.0315 12.9841 17.1143 12.8521 17.1669 12.7071C17.2195 12.5621 17.2407 12.4074 17.2289 12.2534V9.15712H17.9695V12.2752Z" fill="#222226"/>
<path fill-rule="evenodd" clip-rule="evenodd" d="M18.9673 9.15692H22.6736V9.83544H21.1902V13.9972H20.4497V9.83544H18.9668L18.9673 9.15692Z" fill="#222226"/>
<path fill-rule="evenodd" clip-rule="evenodd" d="M27.8136 12.8216C27.3132 13.6444 26.7497 14.0942 25.7137 14.0942C24.3472 14.0942 23.3319 13.0563 23.3319 11.5772C23.3194 11.2501 23.3727 10.9239 23.4887 10.6183C23.6047 10.3126 23.7809 10.0338 24.0067 9.79864C24.2325 9.56349 24.5032 9.37689 24.8025 9.25009C25.1018 9.1233 25.4234 9.05893 25.7481 9.06088C26.1743 9.04348 26.5961 9.15287 26.9611 9.37542C27.3261 9.59797 27.618 9.92385 27.8006 10.3125L27.2113 10.741C26.8675 10.0706 26.3936 9.73841 25.7353 9.73841C24.8292 9.73841 24.0874 10.5127 24.0874 11.5782C24.0874 12.629 24.7801 13.4169 25.7284 13.4169C26.3732 13.4169 26.8808 13.1058 27.2449 12.4146L27.8136 12.8216Z" fill="#222226"/>
<path fill-rule="evenodd" clip-rule="evenodd" d="M29.0459 9.15692H29.7865V11.1895H32.0239V9.15692H32.7662V13.9972H32.0239V11.867H29.7865V13.9972H29.0459V9.15692Z" fill="#222226"/>
<path fill-rule="evenodd" clip-rule="evenodd" d="M9.55648 22.8011C9.55648 21.6183 8.83629 21.0584 7.79295 21.0584H7.13389V24.5438H7.79295C8.83653 24.5438 9.55648 23.9841 9.55648 22.8011ZM6.39258 20.3811H7.7787C9.2412 20.3811 10.312 21.2181 10.312 22.8011C10.312 24.3842 9.2412 25.2211 7.7787 25.2211H6.39258V20.3811Z" fill="#222226"/>
<path fill-rule="evenodd" clip-rule="evenodd" d="M12.7324 25.2211H13.473V20.3809H12.7324V25.2211Z" fill="#222226"/>
<path fill-rule="evenodd" clip-rule="evenodd" d="M19.7157 24.4743C19.5697 24.7421 19.352 24.9631 19.0874 25.1122C18.8228 25.2613 18.522 25.3325 18.2193 25.3176C16.8668 25.3176 15.878 24.2599 15.878 22.8006C15.8686 22.4738 15.9243 22.1484 16.0419 21.8437C16.1594 21.5389 16.3363 21.261 16.5622 21.0264C16.788 20.7918 17.0583 20.6052 17.3569 20.4776C17.6555 20.3501 17.9765 20.2842 18.3008 20.2838C18.7173 20.2696 19.1295 20.3728 19.491 20.5819C19.8525 20.7909 20.149 21.0975 20.3472 21.4671L19.7837 21.8609C19.647 21.5804 19.4334 21.3453 19.1681 21.1835C18.9029 21.0217 18.5972 20.9399 18.2873 20.948C17.3881 20.948 16.6335 21.6743 16.6335 22.8011C16.6335 23.9007 17.2855 24.6404 18.2323 24.6404C19.104 24.6404 19.5435 24.0802 19.6469 23.3271H18.0263V22.711H20.3872V25.2209H19.8937L19.7157 24.4743Z" fill="#222226"/>
<path fill-rule="evenodd" clip-rule="evenodd" d="M22.959 25.2211H23.6996V20.3809H22.959V25.2211Z" fill="#222226"/>
<path fill-rule="evenodd" clip-rule="evenodd" d="M25.8464 20.3809H29.552V21.0581H28.0692V25.2211H27.3286V21.0581H25.8457L25.8464 20.3809Z" fill="#222226"/>
<path fill-rule="evenodd" clip-rule="evenodd" d="M32.8381 21.6948L32.2542 23.2234H33.7506L33.1682 21.6948C33.0714 21.4458 33.0034 21.2317 33.0034 21.2317C33.0034 21.2317 32.9349 21.4458 32.8381 21.6948ZM32.6321 20.3813H33.3744L35.2954 25.2216H34.5133L33.9976 23.8735H32.0072L31.4916 25.2216H30.709L32.6321 20.3813Z" fill="#222226"/>
<path fill-rule="evenodd" clip-rule="evenodd" d="M37.417 20.3809H38.1581V24.5572H40.5674V25.2211H37.417V20.3809Z" fill="#222226"/>
<path fill-rule="evenodd" clip-rule="evenodd" d="M6.02955 33.1767L5.44563 34.7053H6.94201L6.35809 33.1767C6.26233 32.9277 6.19333 32.7135 6.19333 32.7135C6.19333 32.7135 6.12507 32.9277 6.02955 33.1767ZM5.82304 31.8632H6.56436L8.48652 36.7035H7.70346L7.18781 35.3553H5.19836L4.68271 36.7035H3.90039L5.82304 31.8632Z" fill="#222226"/>
<path fill-rule="evenodd" clip-rule="evenodd" d="M14.1588 35.9564C14.0129 36.2243 13.7952 36.4454 13.5306 36.5945C13.266 36.7436 12.9652 36.8148 12.6624 36.7998C11.3102 36.7998 10.3213 35.742 10.3213 34.283C10.3119 33.9562 10.3676 33.6308 10.4851 33.326C10.6026 33.0213 10.7795 32.7434 11.0054 32.5087C11.2312 32.2741 11.5014 32.0874 11.8 31.9598C12.0986 31.8323 12.4196 31.7663 12.7439 31.766C13.1604 31.7517 13.5726 31.8548 13.9341 32.0638C14.2956 32.2727 14.5921 32.5792 14.7903 32.9487L14.227 33.3426C14.0904 33.062 13.8767 32.8269 13.6115 32.6651C13.3463 32.5033 13.0406 32.4216 12.7307 32.4296C11.8315 32.4296 11.0769 33.1559 11.0769 34.283C11.0769 35.3823 11.7288 36.1218 12.6759 36.1218C13.5476 36.1218 13.9871 35.5616 14.0905 34.8098H12.4699V34.1931H14.8308V36.7032H14.3375L14.1588 35.9564Z" fill="#222226"/>
<path fill-rule="evenodd" clip-rule="evenodd" d="M17.5586 31.8632H20.7156V32.5271H18.2992V33.8683H20.5236V34.5322H18.2997V36.0395H20.7365V36.7035H17.5591L17.5586 31.8632Z" fill="#222226"/>
<path fill-rule="evenodd" clip-rule="evenodd" d="M23.3379 31.863H24.0925L26.2486 35.236C26.3242 35.3543 26.3931 35.4767 26.4551 35.6026V31.863H27.1672V36.7035H26.4127L24.2572 33.3299C24.1819 33.2119 24.1132 33.0897 24.0517 32.9638V36.7035H23.3379V31.863Z" fill="#222226"/>
<path fill-rule="evenodd" clip-rule="evenodd" d="M34.2199 35.5279C33.7195 36.3507 33.1559 36.8003 32.12 36.8003C30.7535 36.8003 29.7381 35.7626 29.7381 34.2835C29.7256 33.9564 29.7788 33.6302 29.8947 33.3245C30.0107 33.0187 30.1868 32.7399 30.4125 32.5046C30.6383 32.2694 30.909 32.0827 31.2083 31.9559C31.5075 31.829 31.8292 31.7646 32.1538 31.7664C32.5799 31.7491 33.0017 31.8584 33.3666 32.0809C33.7315 32.3034 34.0234 32.6292 34.2059 33.0178L33.6181 33.4468C33.2743 32.7764 32.8004 32.4442 32.1421 32.4442C31.236 32.4442 30.4942 33.2185 30.4942 34.284C30.4942 35.3348 31.1869 36.1227 32.1349 36.1227C32.78 36.1227 33.2875 35.8116 33.6517 35.1202L34.2199 35.5279Z" fill="#222226"/>
<path fill-rule="evenodd" clip-rule="evenodd" d="M36.7344 36.7032H37.4749V31.8632H36.7344V36.7032Z" fill="#222226"/>
<path fill-rule="evenodd" clip-rule="evenodd" d="M40.2725 31.8632H43.4295V32.5271H41.013V33.8683H43.2372V34.5322H41.013V36.0395H43.4499V36.7035H40.2725V31.8632Z" fill="#222226"/>
<path fill-rule="evenodd" clip-rule="evenodd" d="M47.8611 33.8958C48.8964 34.0963 49.412 34.532 49.412 35.3407C49.412 36.1222 48.7397 36.8012 47.6549 36.8012C46.5094 36.8012 45.8434 36.1373 45.6855 35.2732L46.3375 34.9345C46.4738 35.7294 46.9202 36.1514 47.6485 36.1514C48.2869 36.1514 48.6707 35.7987 48.6707 35.3702C48.6707 34.8649 48.2734 34.6434 47.4493 34.485C46.5573 34.3117 45.9053 33.8763 45.9053 33.0603C45.9053 32.293 46.5845 31.7672 47.552 31.7672C47.9382 31.7434 48.3215 31.8483 48.6428 32.0658C48.9641 32.2833 49.2055 32.6013 49.3297 32.9707L48.7404 33.3173C48.6737 33.0521 48.5185 32.818 48.301 32.6543C48.0835 32.4905 47.8168 32.4071 47.5456 32.418C47.038 32.418 46.6056 32.6331 46.6056 33.0477C46.6056 33.4834 47.0177 33.7322 47.8619 33.8978" fill="#222226"/>
<path fill-rule="evenodd" clip-rule="evenodd" d="M12.2481 11.5769C12.2481 10.3939 11.5277 9.83421 10.4844 9.83421H9.82554V13.3196H10.4844C11.5279 13.3196 12.2481 12.7594 12.2481 11.5769ZM9.08398 9.15668H10.4701C11.9328 9.15668 13.0037 9.99363 13.0037 11.5769C13.0037 13.1602 11.9328 13.9969 10.4701 13.9969H9.08398V9.15668Z" fill="#222226"/>
<path fill-rule="evenodd" clip-rule="evenodd" d="M17.9695 12.2753C17.9695 13.4437 17.1801 14.0942 16.095 14.0942C15.0099 14.0942 14.2217 13.4439 14.2217 12.2753V9.15619H14.9627V12.2535C14.951 12.4073 14.972 12.5619 15.0245 12.7068C15.0769 12.8517 15.1596 12.9836 15.2669 13.0936C15.3742 13.2036 15.5036 13.2892 15.6464 13.3445C15.7893 13.3999 15.9422 13.4237 16.095 13.4145C16.2478 13.4239 16.401 13.4002 16.544 13.3449C16.687 13.2897 16.8166 13.2042 16.924 13.0941C17.0315 12.9841 17.1143 12.8521 17.1669 12.7071C17.2195 12.5621 17.2407 12.4074 17.2289 12.2535V9.15718H17.9695V12.2753Z" fill="#222226"/>
<path fill-rule="evenodd" clip-rule="evenodd" d="M18.9683 9.15692H22.6746V9.83544H21.1912V13.9972H20.4506V9.83544H18.9678L18.9683 9.15692Z" fill="#222226"/>
<path fill-rule="evenodd" clip-rule="evenodd" d="M27.8136 12.8216C27.3132 13.6444 26.7497 14.0942 25.7137 14.0942C24.3472 14.0942 23.3319 13.0563 23.3319 11.5772C23.3194 11.2501 23.3727 10.9239 23.4887 10.6183C23.6047 10.3126 23.7809 10.0338 24.0067 9.79864C24.2325 9.56349 24.5032 9.37689 24.8025 9.25009C25.1018 9.1233 25.4234 9.05893 25.7481 9.06088C26.1743 9.04348 26.5961 9.15287 26.9611 9.37542C27.3261 9.59797 27.618 9.92385 27.8006 10.3125L27.2113 10.741C26.8675 10.0706 26.3936 9.73841 25.7353 9.73841C24.8292 9.73841 24.0874 10.5127 24.0874 11.5782C24.0874 12.629 24.7801 13.4169 25.7284 13.4169C26.3732 13.4169 26.8808 13.1058 27.2449 12.4146L27.8136 12.8216Z" fill="#222226"/>
<path fill-rule="evenodd" clip-rule="evenodd" d="M29.0459 9.15692H29.7865V11.1895H32.0239V9.15692H32.7662V13.9972H32.0239V11.867H29.7865V13.9972H29.0459V9.15692Z" fill="#222226"/>
<path fill-rule="evenodd" clip-rule="evenodd" d="M9.55746 22.8011C9.55746 21.6183 8.83726 21.0584 7.79392 21.0584H7.13487V24.5438H7.79392C8.83751 24.5438 9.55746 23.9841 9.55746 22.8011ZM6.39355 20.3811H7.77968C9.24217 20.3811 10.313 21.2181 10.313 22.8011C10.313 24.3842 9.24217 25.2211 7.77968 25.2211H6.39355V20.3811Z" fill="#222226"/>
<path fill-rule="evenodd" clip-rule="evenodd" d="M12.7314 25.2211H13.472V20.3809H12.7314V25.2211Z" fill="#222226"/>
<path fill-rule="evenodd" clip-rule="evenodd" d="M19.7147 24.4743C19.5687 24.7421 19.351 24.9631 19.0864 25.1122C18.8219 25.2613 18.521 25.3325 18.2183 25.3176C16.8658 25.3176 15.877 24.2599 15.877 22.8006C15.8676 22.4738 15.9234 22.1484 16.0409 21.8437C16.1584 21.5389 16.3353 21.261 16.5612 21.0264C16.7871 20.7918 17.0573 20.6052 17.3559 20.4776C17.6545 20.3501 17.9755 20.2842 18.2998 20.2838C18.7163 20.2696 19.1285 20.3728 19.49 20.5819C19.8516 20.7909 20.1481 21.0975 20.3462 21.4671L19.7827 21.8609C19.646 21.5804 19.4324 21.3453 19.1672 21.1835C18.9019 21.0217 18.5962 20.9399 18.2863 20.948C17.3871 20.948 16.6325 21.6743 16.6325 22.8011C16.6325 23.9007 17.2845 24.6404 18.2313 24.6404C19.103 24.6404 19.5425 24.0802 19.6459 23.3271H18.0253V22.711H20.3863V25.2209H19.8927L19.7147 24.4743Z" fill="#222226"/>
<path fill-rule="evenodd" clip-rule="evenodd" d="M22.959 25.2211H23.6996V20.3809H22.959V25.2211Z" fill="#222226"/>
<path fill-rule="evenodd" clip-rule="evenodd" d="M25.8464 20.3809H29.552V21.0581H28.0692V25.2211H27.3286V21.0581H25.8457L25.8464 20.3809Z" fill="#222226"/>
<path fill-rule="evenodd" clip-rule="evenodd" d="M32.8391 21.6948L32.2552 23.2234H33.7516L33.1691 21.6948C33.0724 21.4458 33.0044 21.2317 33.0044 21.2317C33.0044 21.2317 32.9359 21.4458 32.8391 21.6948ZM32.6331 20.3813H33.3754L35.2963 25.2216H34.5143L33.9986 23.8735H32.0082L31.4925 25.2216H30.71L32.6331 20.3813Z" fill="#222226"/>
<path fill-rule="evenodd" clip-rule="evenodd" d="M37.417 20.3809H38.1581V24.5572H40.5674V25.2211H37.417V20.3809Z" fill="#222226"/>
<path fill-rule="evenodd" clip-rule="evenodd" d="M6.02955 33.1767L5.44563 34.7053H6.94201L6.35809 33.1767C6.26233 32.9277 6.19333 32.7135 6.19333 32.7135C6.19333 32.7135 6.12507 32.9277 6.02955 33.1767ZM5.82304 31.8632H6.56436L8.48652 36.7035H7.70346L7.18781 35.3553H5.19836L4.68271 36.7035H3.90039L5.82304 31.8632Z" fill="#222226"/>
<path fill-rule="evenodd" clip-rule="evenodd" d="M14.1578 35.9564C14.0119 36.2243 13.7942 36.4454 13.5296 36.5945C13.265 36.7436 12.9642 36.8148 12.6614 36.7998C11.3092 36.7998 10.3204 35.742 10.3204 34.283C10.311 33.9562 10.3667 33.6308 10.4841 33.326C10.6016 33.0213 10.7785 32.7434 11.0044 32.5087C11.2302 32.2741 11.5004 32.0874 11.7991 31.9598C12.0977 31.8323 12.4186 31.7663 12.7429 31.766C13.1594 31.7517 13.5716 31.8548 13.9331 32.0638C14.2946 32.2727 14.5911 32.5792 14.7894 32.9487L14.2261 33.3426C14.0894 33.062 13.8758 32.8269 13.6105 32.6651C13.3453 32.5033 13.0396 32.4216 12.7297 32.4296C11.8305 32.4296 11.0759 33.1559 11.0759 34.283C11.0759 35.3823 11.7278 36.1218 12.6749 36.1218C13.5466 36.1218 13.9862 35.5616 14.0895 34.8098H12.4689V34.1931H14.8299V36.7032H14.3366L14.1578 35.9564Z" fill="#222226"/>
<path fill-rule="evenodd" clip-rule="evenodd" d="M17.5596 31.8632H20.7166V32.5271H18.3001V33.8683H20.5246V34.5322H18.3006V36.0395H20.7375V36.7035H17.5601L17.5596 31.8632Z" fill="#222226"/>
<path fill-rule="evenodd" clip-rule="evenodd" d="M23.3389 31.863H24.0934L26.2496 35.236C26.3251 35.3543 26.3941 35.4767 26.4561 35.6026V31.863H27.1682V36.7035H26.4136L24.2582 33.3299C24.1828 33.2119 24.1142 33.0897 24.0527 32.9638V36.7035H23.3389V31.863Z" fill="#222226"/>
<path fill-rule="evenodd" clip-rule="evenodd" d="M34.2199 35.5279C33.7195 36.3507 33.1559 36.8003 32.12 36.8003C30.7535 36.8003 29.7381 35.7626 29.7381 34.2835C29.7256 33.9564 29.7788 33.6302 29.8947 33.3245C30.0107 33.0187 30.1868 32.7399 30.4125 32.5046C30.6383 32.2694 30.909 32.0827 31.2083 31.9559C31.5075 31.829 31.8292 31.7646 32.1538 31.7664C32.5799 31.7491 33.0017 31.8584 33.3666 32.0809C33.7315 32.3034 34.0234 32.6292 34.2059 33.0178L33.6181 33.4468C33.2743 32.7764 32.8004 32.4442 32.1421 32.4442C31.236 32.4442 30.4942 33.2185 30.4942 34.284C30.4942 35.3348 31.1869 36.1227 32.1349 36.1227C32.78 36.1227 33.2875 35.8116 33.6517 35.1202L34.2199 35.5279Z" fill="#222226"/>
<path fill-rule="evenodd" clip-rule="evenodd" d="M36.7344 36.7032H37.4749V31.8632H36.7344V36.7032Z" fill="#222226"/>
<path fill-rule="evenodd" clip-rule="evenodd" d="M40.2725 31.8632H43.4295V32.5271H41.013V33.8683H43.2372V34.5322H41.013V36.0395H43.4499V36.7035H40.2725V31.8632Z" fill="#222226"/>
</g>
<defs>
<clipPath id="clip0_9_4389">
<rect width="53.3333" height="40" fill="white"/>
</clipPath>
</defs>
</svg>
