<svg width="107" height="80" viewBox="0 0 107 80" fill="none" xmlns="http://www.w3.org/2000/svg">
<path d="M72.3097 34.6337H11.0156V11.0977H72.3097V34.6337ZM12.3416 33.297H70.9837V12.4329H12.3416V33.297Z" fill="#222226"/>
<path d="M89.36 57.6417H5.50488V5.54834H89.36V57.6417ZM6.83085 56.3049H88.0389V6.8836H6.83085V56.3049Z" fill="#222226"/>
<path d="M106.667 79.9999H0V-0.00292969H106.667V79.9999ZM1.32106 78.6632H105.341V1.33381H1.32106V78.6632Z" fill="#222226"/>
<path fill-rule="evenodd" clip-rule="evenodd" d="M24.4963 23.154C24.4963 20.7879 23.0554 19.6685 20.9687 19.6685H19.6511V26.6394H20.9687C23.0559 26.6394 24.4963 25.519 24.4963 23.154ZM18.168 18.3135H20.9402C23.8657 18.3135 26.0074 19.9874 26.0074 23.154C26.0074 26.3206 23.8657 27.994 20.9402 27.994H18.168V18.3135Z" fill="#222226"/>
<path fill-rule="evenodd" clip-rule="evenodd" d="M35.939 24.5506C35.939 26.8875 34.3601 28.1885 32.19 28.1885C30.0198 28.1885 28.4434 26.8879 28.4434 24.5506V18.3125H29.9255V24.5071C29.9019 24.8147 29.944 25.1238 30.0489 25.4137C30.1539 25.7035 30.3192 25.9674 30.5338 26.1874C30.7483 26.4074 31.0072 26.5785 31.2929 26.6892C31.5785 26.7999 31.8844 26.8476 32.19 26.829C32.4957 26.8479 32.8019 26.8005 33.0879 26.69C33.374 26.5795 33.6332 26.4084 33.8481 26.1884C34.063 25.9684 34.2286 25.7044 34.3338 25.4144C34.439 25.1244 34.4813 24.815 34.4578 24.5071V18.3145H35.939V24.5506Z" fill="#222226"/>
<path fill-rule="evenodd" clip-rule="evenodd" d="M37.9356 18.314H45.3482V19.671H42.3815V27.9945H40.9003V19.671H37.9346L37.9356 18.314Z" fill="#222226"/>
<path fill-rule="evenodd" clip-rule="evenodd" d="M55.6272 25.6432C54.6264 27.2888 53.4993 28.1884 51.4274 28.1884C48.6944 28.1884 46.6637 26.1125 46.6637 23.1543C46.6388 22.5003 46.7455 21.8479 46.9775 21.2365C47.2094 20.6252 47.5618 20.0676 48.0134 19.5973C48.465 19.127 49.0064 18.7538 49.605 18.5002C50.2035 18.2466 50.8469 18.1179 51.4961 18.1218C52.3485 18.087 53.1922 18.3057 53.9222 18.7508C54.6521 19.1959 55.236 19.8477 55.6012 20.6249L54.4226 21.4819C53.735 20.1412 52.7872 19.4768 51.4706 19.4768C49.6584 19.4768 48.1748 21.0255 48.1748 23.1563C48.1748 25.258 49.5602 26.8338 51.4568 26.8338C52.7465 26.8338 53.7616 26.2115 54.4899 24.8292L55.6272 25.6432Z" fill="#222226"/>
<path fill-rule="evenodd" clip-rule="evenodd" d="M58.0918 18.314H59.573V22.3791H64.0478V18.314H65.5324V27.9945H64.0478V23.7342H59.573V27.9945H58.0918V18.314Z" fill="#222226"/>
<path fill-rule="evenodd" clip-rule="evenodd" d="M19.1139 45.6022C19.1139 43.2367 17.6735 42.1168 15.5869 42.1168H14.2688V49.0876H15.5869C17.674 49.0876 19.1139 47.9682 19.1139 45.6022ZM12.7861 40.7622H15.5584C18.4834 40.7622 20.6251 42.4361 20.6251 45.6022C20.6251 48.7683 18.4834 50.4422 15.5584 50.4422H12.7861V40.7622Z" fill="#222226"/>
<path fill-rule="evenodd" clip-rule="evenodd" d="M25.4639 50.4422H26.945V40.7617H25.4639V50.4422Z" fill="#222226"/>
<path fill-rule="evenodd" clip-rule="evenodd" d="M39.4303 48.9489C39.1383 49.4845 38.703 49.9266 38.1738 50.2248C37.6447 50.523 37.0431 50.6654 36.4376 50.6357C33.7326 50.6357 31.7549 48.5201 31.7549 45.6016C31.7362 44.9479 31.8477 44.2972 32.0827 43.6877C32.3178 43.0782 32.6716 42.5224 33.1234 42.0532C33.5751 41.5839 34.1156 41.2107 34.7128 40.9556C35.3101 40.7005 35.952 40.5687 36.6006 40.568C37.4337 40.5396 38.258 40.7461 38.9811 41.1641C39.7041 41.5822 40.2971 42.1953 40.6934 42.9345L39.5664 43.7222C39.293 43.1612 38.8658 42.691 38.3353 42.3673C37.8048 42.0437 37.1934 41.8802 36.5736 41.8963C34.7752 41.8963 33.2661 43.3489 33.2661 45.6026C33.2661 47.8018 34.5699 49.2811 36.4636 49.2811C38.207 49.2811 39.0861 48.1607 39.2928 46.6546H36.0516V45.4224H40.7735V50.4421H39.7864L39.4303 48.9489Z" fill="#222226"/>
<path fill-rule="evenodd" clip-rule="evenodd" d="M45.918 50.4422H47.3991V40.7617H45.918V50.4422Z" fill="#222226"/>
<path fill-rule="evenodd" clip-rule="evenodd" d="M51.6929 40.7617H59.1041V42.1163H56.1383V50.4422H54.6572V42.1163H51.6914L51.6929 40.7617Z" fill="#222226"/>
<path fill-rule="evenodd" clip-rule="evenodd" d="M65.6773 43.3896L64.5094 46.4468H67.5022L66.3373 43.3896C66.1438 42.8916 66.0078 42.4633 66.0078 42.4633C66.0078 42.4633 65.8708 42.8916 65.6773 43.3896ZM65.2652 40.7627H66.7498L70.5917 50.4432H69.0275L67.9962 47.7469H64.0154L62.9841 50.4432H61.4189L65.2652 40.7627Z" fill="#222226"/>
<path fill-rule="evenodd" clip-rule="evenodd" d="M74.834 40.7617H76.3161V49.1144H81.1348V50.4422H74.834V40.7617Z" fill="#222226"/>
<path fill-rule="evenodd" clip-rule="evenodd" d="M12.0591 66.3535L10.8913 69.4107H13.884L12.7162 66.3535C12.5247 65.8554 12.3867 65.4272 12.3867 65.4272C12.3867 65.4272 12.2501 65.8554 12.0591 66.3535ZM11.6461 63.7266H13.1287L16.973 73.4071H15.4069L14.3756 70.7108H10.3967L9.36542 73.4071H7.80078L11.6461 63.7266Z" fill="#222226"/>
<path fill-rule="evenodd" clip-rule="evenodd" d="M28.3166 71.9128C28.0248 72.4485 27.5894 72.8908 27.0602 73.189C26.5311 73.4873 25.9294 73.6295 25.3238 73.5996C22.6193 73.5996 20.6417 71.484 20.6417 68.566C20.6229 67.9123 20.7343 67.2615 20.9693 66.652C21.2043 66.0425 21.558 65.4867 22.0097 65.0174C22.4614 64.5481 23.0019 64.1748 23.5991 63.9197C24.1963 63.6645 24.8382 63.5327 25.4869 63.5319C26.3198 63.5034 27.1441 63.7096 27.8672 64.1275C28.5902 64.5454 29.1833 65.1584 29.5797 65.8974L28.4531 66.6851C28.1797 66.1241 27.7525 65.6539 27.222 65.3302C26.6916 65.0066 26.0802 64.8431 25.4603 64.8592C23.6619 64.8592 22.1528 66.3118 22.1528 68.566C22.1528 70.7647 23.4567 72.2435 25.3508 72.2435C27.0942 72.2435 27.9733 71.1231 28.18 69.6195H24.9388V68.3863H29.6607V73.4065H28.6741L28.3166 71.9128Z" fill="#222226"/>
<path fill-rule="evenodd" clip-rule="evenodd" d="M35.1182 63.7266H41.4322V65.0544H36.5993V67.7368H41.0482V69.0646H36.6003V72.0792H41.474V73.4071H35.1191L35.1182 63.7266Z" fill="#222226"/>
<path fill-rule="evenodd" clip-rule="evenodd" d="M46.6768 63.7261H48.1859L52.4982 70.4722C52.6493 70.7087 52.7872 70.9534 52.9113 71.2054V63.7261H54.3354V73.4071H52.8263L48.5154 66.66C48.3647 66.424 48.2275 66.1795 48.1044 65.9277V73.4071H46.6768V63.7261Z" fill="#222226"/>
<path fill-rule="evenodd" clip-rule="evenodd" d="M68.4398 71.0558C67.4389 72.7014 66.3119 73.6005 64.2399 73.6005C61.507 73.6005 59.4763 71.5251 59.4763 68.567C59.4511 67.9128 59.5577 67.2604 59.7895 66.6489C60.0213 66.0375 60.3736 65.4797 60.8251 65.0093C61.2766 64.5388 61.818 64.1655 62.4165 63.9117C63.0151 63.658 63.6584 63.5291 64.3077 63.5329C65.1599 63.4981 66.0034 63.7169 66.7332 64.1619C67.4629 64.6069 68.0467 65.2585 68.4118 66.0356L67.2361 66.8935C66.5486 65.5528 65.6008 64.8884 64.2841 64.8884C62.472 64.8884 60.9884 66.4371 60.9884 68.5679C60.9884 70.6696 62.3737 72.2455 64.2699 72.2455C65.56 72.2455 66.5751 71.6231 67.3034 70.2404L68.4398 71.0558Z" fill="#222226"/>
<path fill-rule="evenodd" clip-rule="evenodd" d="M73.4688 73.4066H74.9499V63.7266H73.4688V73.4066Z" fill="#222226"/>
<path fill-rule="evenodd" clip-rule="evenodd" d="M80.5449 63.7266H86.859V65.0544H82.0261V67.7368H86.4745V69.0646H82.0261V72.0792H86.8997V73.4071H80.5449V63.7266Z" fill="#222226"/>
<path fill-rule="evenodd" clip-rule="evenodd" d="M95.7222 67.7917C97.7927 68.1928 98.824 69.0641 98.824 70.6816C98.824 72.2446 97.4794 73.6026 95.3097 73.6026C93.0187 73.6026 91.6869 72.2748 91.3711 70.5464L92.675 69.8691C92.9475 71.4589 93.8403 72.303 95.2969 72.303C96.5738 72.303 97.3414 71.5975 97.3414 70.7405C97.3414 69.73 96.5468 69.2869 94.8987 68.9701C93.1145 68.6235 91.8106 67.7526 91.8106 66.1208C91.8106 64.586 93.169 63.5345 95.1039 63.5345C95.8765 63.4868 96.6431 63.6967 97.2856 64.1317C97.9282 64.5667 98.4109 65.2027 98.6595 65.9416L97.4809 66.6347C97.3473 66.1042 97.0371 65.6361 96.6021 65.3086C96.167 64.9812 95.6336 64.8144 95.0912 64.8361C94.0761 64.8361 93.2112 65.2663 93.2112 66.0956C93.2112 66.9669 94.0353 67.4645 95.7237 67.7957" fill="#222226"/>
<path fill-rule="evenodd" clip-rule="evenodd" d="M24.4963 23.154C24.4963 20.7879 23.0554 19.6685 20.9687 19.6685H19.6511V26.6394H20.9687C23.0559 26.6394 24.4963 25.519 24.4963 23.154ZM18.168 18.3135H20.9402C23.8657 18.3135 26.0074 19.9874 26.0074 23.154C26.0074 26.3206 23.8657 27.994 20.9402 27.994H18.168V18.3135Z" fill="#222226"/>
<path fill-rule="evenodd" clip-rule="evenodd" d="M35.939 24.5506C35.939 26.8875 34.3601 28.1885 32.19 28.1885C30.0198 28.1885 28.4434 26.8879 28.4434 24.5506V18.3125H29.9255V24.5071C29.9019 24.8147 29.944 25.1238 30.0489 25.4137C30.1539 25.7035 30.3192 25.9674 30.5338 26.1874C30.7483 26.4074 31.0072 26.5785 31.2929 26.6892C31.5785 26.7999 31.8844 26.8476 32.19 26.829C32.4957 26.8479 32.8019 26.8005 33.0879 26.69C33.374 26.5795 33.6332 26.4084 33.8481 26.1884C34.063 25.9684 34.2287 25.7044 34.3338 25.4144C34.439 25.1244 34.4813 24.815 34.4578 24.5071V18.3145H35.939V24.5506Z" fill="#222226"/>
<path fill-rule="evenodd" clip-rule="evenodd" d="M37.9365 18.314H45.3492V19.671H42.3824V27.9945H40.9013V19.671H37.9355L37.9365 18.314Z" fill="#222226"/>
<path fill-rule="evenodd" clip-rule="evenodd" d="M55.6272 25.6432C54.6264 27.2888 53.4993 28.1884 51.4274 28.1884C48.6944 28.1884 46.6637 26.1125 46.6637 23.1543C46.6388 22.5003 46.7455 21.8479 46.9775 21.2365C47.2094 20.6252 47.5618 20.0676 48.0134 19.5973C48.465 19.127 49.0064 18.7538 49.605 18.5002C50.2035 18.2466 50.8469 18.1179 51.4961 18.1218C52.3485 18.087 53.1922 18.3057 53.9222 18.7508C54.6521 19.1959 55.236 19.8477 55.6012 20.6249L54.4226 21.4819C53.735 20.1412 52.7872 19.4768 51.4706 19.4768C49.6584 19.4768 48.1748 21.0255 48.1748 23.1563C48.1748 25.258 49.5602 26.8338 51.4568 26.8338C52.7465 26.8338 53.7616 26.2115 54.4899 24.8292L55.6272 25.6432Z" fill="#222226"/>
<path fill-rule="evenodd" clip-rule="evenodd" d="M58.0928 18.314H59.5739V22.3791H64.0488V18.314H65.5334V27.9945H64.0488V23.7342H59.5739V27.9945H58.0928V18.314Z" fill="#222226"/>
<path fill-rule="evenodd" clip-rule="evenodd" d="M19.1139 45.6022C19.1139 43.2367 17.6735 42.1168 15.5869 42.1168H14.2688V49.0876H15.5869C17.674 49.0876 19.1139 47.9682 19.1139 45.6022ZM12.7861 40.7622H15.5584C18.4834 40.7622 20.6251 42.4361 20.6251 45.6022C20.6251 48.7683 18.4834 50.4422 15.5584 50.4422H12.7861V40.7622Z" fill="#222226"/>
<path fill-rule="evenodd" clip-rule="evenodd" d="M25.4639 50.4422H26.945V40.7617H25.4639V50.4422Z" fill="#222226"/>
<path fill-rule="evenodd" clip-rule="evenodd" d="M39.4303 48.9489C39.1383 49.4845 38.703 49.9266 38.1738 50.2248C37.6447 50.523 37.0431 50.6654 36.4376 50.6357C33.7326 50.6357 31.7549 48.5201 31.7549 45.6016C31.7362 44.9479 31.8477 44.2972 32.0827 43.6877C32.3178 43.0782 32.6716 42.5224 33.1234 42.0532C33.5751 41.5839 34.1156 41.2107 34.7128 40.9556C35.3101 40.7005 35.952 40.5687 36.6006 40.568C37.4337 40.5396 38.258 40.7461 38.9811 41.1641C39.7041 41.5822 40.2971 42.1953 40.6934 42.9345L39.5664 43.7222C39.293 43.1612 38.8658 42.691 38.3353 42.3673C37.8048 42.0437 37.1934 41.8802 36.5736 41.8963C34.7752 41.8963 33.2661 43.3489 33.2661 45.6026C33.2661 47.8018 34.5699 49.2811 36.4636 49.2811C38.207 49.2811 39.0861 48.1607 39.2928 46.6546H36.0516V45.4224H40.7735V50.4421H39.7864L39.4303 48.9489Z" fill="#222226"/>
<path fill-rule="evenodd" clip-rule="evenodd" d="M45.918 50.4422H47.3991V40.7617H45.918V50.4422Z" fill="#222226"/>
<path fill-rule="evenodd" clip-rule="evenodd" d="M51.6929 40.7617H59.1041V42.1163H56.1383V50.4422H54.6572V42.1163H51.6914L51.6929 40.7617Z" fill="#222226"/>
<path fill-rule="evenodd" clip-rule="evenodd" d="M65.6773 43.3896L64.5094 46.4468H67.5022L66.3373 43.3896C66.1438 42.8916 66.0078 42.4633 66.0078 42.4633C66.0078 42.4633 65.8708 42.8916 65.6773 43.3896ZM65.2652 40.7627H66.7498L70.5917 50.4432H69.0275L67.9962 47.7469H64.0154L62.9841 50.4432H61.4189L65.2652 40.7627Z" fill="#222226"/>
<path fill-rule="evenodd" clip-rule="evenodd" d="M74.834 40.7617H76.3161V49.1144H81.1348V50.4422H74.834V40.7617Z" fill="#222226"/>
<path fill-rule="evenodd" clip-rule="evenodd" d="M12.0591 66.3535L10.8913 69.4107H13.884L12.7162 66.3535C12.5247 65.8554 12.3867 65.4272 12.3867 65.4272C12.3867 65.4272 12.2501 65.8554 12.0591 66.3535ZM11.6461 63.7266H13.1287L16.973 73.4071H15.4069L14.3756 70.7108H10.3967L9.36542 73.4071H7.80078L11.6461 63.7266Z" fill="#222226"/>
<path fill-rule="evenodd" clip-rule="evenodd" d="M28.3166 71.9128C28.0248 72.4485 27.5894 72.8908 27.0602 73.189C26.5311 73.4873 25.9294 73.6295 25.3238 73.5996C22.6193 73.5996 20.6417 71.484 20.6417 68.566C20.6229 67.9123 20.7343 67.2615 20.9693 66.652C21.2043 66.0425 21.558 65.4867 22.0097 65.0174C22.4614 64.5481 23.0019 64.1748 23.5991 63.9197C24.1963 63.6645 24.8382 63.5327 25.4869 63.5319C26.3198 63.5034 27.1441 63.7096 27.8672 64.1275C28.5902 64.5454 29.1833 65.1584 29.5797 65.8974L28.4531 66.6851C28.1797 66.1241 27.7525 65.6539 27.222 65.3302C26.6916 65.0066 26.0802 64.8431 25.4603 64.8592C23.6619 64.8592 22.1528 66.3118 22.1528 68.566C22.1528 70.7647 23.4567 72.2435 25.3508 72.2435C27.0942 72.2435 27.9733 71.1231 28.18 69.6195H24.9388V68.3863H29.6607V73.4065H28.6741L28.3166 71.9128Z" fill="#222226"/>
<path fill-rule="evenodd" clip-rule="evenodd" d="M35.1182 63.7266H41.4322V65.0544H36.5993V67.7368H41.0482V69.0646H36.6003V72.0792H41.474V73.4071H35.1191L35.1182 63.7266Z" fill="#222226"/>
<path fill-rule="evenodd" clip-rule="evenodd" d="M46.6768 63.7261H48.1859L52.4982 70.4722C52.6493 70.7087 52.7872 70.9534 52.9113 71.2054V63.7261H54.3354V73.4071H52.8263L48.5154 66.66C48.3647 66.424 48.2275 66.1795 48.1044 65.9277V73.4071H46.6768V63.7261Z" fill="#222226"/>
<path fill-rule="evenodd" clip-rule="evenodd" d="M68.4398 71.0558C67.4389 72.7014 66.3119 73.6005 64.2399 73.6005C61.507 73.6005 59.4763 71.5251 59.4763 68.567C59.4511 67.9128 59.5577 67.2604 59.7895 66.6489C60.0213 66.0375 60.3736 65.4797 60.8251 65.0093C61.2766 64.5388 61.818 64.1655 62.4165 63.9117C63.0151 63.658 63.6584 63.5291 64.3077 63.5329C65.1599 63.4981 66.0034 63.7169 66.7332 64.1619C67.4629 64.6069 68.0467 65.2585 68.4118 66.0356L67.2361 66.8935C66.5486 65.5528 65.6008 64.8884 64.2841 64.8884C62.472 64.8884 60.9884 66.4371 60.9884 68.5679C60.9884 70.6696 62.3737 72.2455 64.2699 72.2455C65.56 72.2455 66.5751 71.6231 67.3034 70.2404L68.4398 71.0558Z" fill="#222226"/>
<path fill-rule="evenodd" clip-rule="evenodd" d="M73.4688 73.4066H74.9499V63.7266H73.4688V73.4066Z" fill="#222226"/>
<path fill-rule="evenodd" clip-rule="evenodd" d="M80.5449 63.7266H86.859V65.0544H82.0261V67.7368H86.4745V69.0646H82.0261V72.0792H86.8997V73.4071H80.5449V63.7266Z" fill="#222226"/>
</svg>
